<svg width="344" height="168" viewBox="0 0 344 168" fill="none" xmlns="http://www.w3.org/2000/svg">
<rect width="344" height="157" fill="#21214C"/>
<mask id="mask0_2578_63088" style="mask-type:alpha" maskUnits="userSpaceOnUse" x="-1" y="-1" width="321" height="159">
<rect width="12.2692" height="10.4667" stroke="white" stroke-width="0.432799"/>
<rect x="12.2692" width="12.2692" height="10.4667" stroke="white" stroke-width="0.432799"/>
<rect x="24.5385" width="12.2692" height="10.4667" stroke="white" stroke-width="0.432799"/>
<rect x="36.8077" width="12.2692" height="10.4667" stroke="white" stroke-width="0.432799"/>
<rect x="49.0769" width="12.2692" height="10.4667" stroke="white" stroke-width="0.432799"/>
<rect x="61.3462" width="12.2692" height="10.4667" stroke="white" stroke-width="0.432799"/>
<rect x="73.6154" width="12.2692" height="10.4667" stroke="white" stroke-width="0.432799"/>
<rect x="85.8846" width="12.2692" height="10.4667" stroke="white" stroke-width="0.432799"/>
<rect x="98.1539" width="12.2692" height="10.4667" stroke="white" stroke-width="0.432799"/>
<rect x="110.423" width="12.2692" height="10.4667" stroke="white" stroke-width="0.432799"/>
<rect x="122.692" width="12.2692" height="10.4667" stroke="white" stroke-width="0.432799"/>
<rect x="134.962" width="12.2692" height="10.4667" stroke="white" stroke-width="0.432799"/>
<rect x="147.231" width="12.2692" height="10.4667" stroke="white" stroke-width="0.432799"/>
<rect x="159.5" width="12.2692" height="10.4667" stroke="white" stroke-width="0.432799"/>
<rect x="171.769" width="12.2692" height="10.4667" stroke="white" stroke-width="0.432799"/>
<rect x="184.038" width="12.2692" height="10.4667" stroke="white" stroke-width="0.432799"/>
<rect x="196.308" width="12.2692" height="10.4667" stroke="white" stroke-width="0.432799"/>
<rect x="208.577" width="12.2692" height="10.4667" stroke="white" stroke-width="0.432799"/>
<rect x="220.846" width="12.2692" height="10.4667" stroke="white" stroke-width="0.432799"/>
<rect x="233.115" width="12.2693" height="10.4667" stroke="white" stroke-width="0.432799"/>
<rect x="245.385" width="12.2692" height="10.4667" stroke="white" stroke-width="0.432799"/>
<rect x="257.654" width="12.2692" height="10.4667" stroke="white" stroke-width="0.432799"/>
<rect x="269.923" width="12.2692" height="10.4667" stroke="white" stroke-width="0.432799"/>
<rect x="282.192" width="12.2693" height="10.4667" stroke="white" stroke-width="0.432799"/>
<rect x="294.462" width="12.2692" height="10.4667" stroke="white" stroke-width="0.432799"/>
<rect x="306.731" width="12.2692" height="10.4667" stroke="white" stroke-width="0.432799"/>
<rect y="10.4667" width="12.2692" height="10.4667" stroke="white" stroke-width="0.432799"/>
<rect x="12.2692" y="10.4667" width="12.2692" height="10.4667" stroke="white" stroke-width="0.432799"/>
<rect x="24.5385" y="10.4667" width="12.2692" height="10.4667" stroke="white" stroke-width="0.432799"/>
<rect x="36.8077" y="10.4667" width="12.2692" height="10.4667" stroke="white" stroke-width="0.432799"/>
<rect x="49.0769" y="10.4667" width="12.2692" height="10.4667" stroke="white" stroke-width="0.432799"/>
<rect x="61.3462" y="10.4667" width="12.2692" height="10.4667" stroke="white" stroke-width="0.432799"/>
<rect x="73.6154" y="10.4667" width="12.2692" height="10.4667" stroke="white" stroke-width="0.432799"/>
<rect x="85.8846" y="10.4667" width="12.2692" height="10.4667" stroke="white" stroke-width="0.432799"/>
<rect x="98.1539" y="10.4667" width="12.2692" height="10.4667" stroke="white" stroke-width="0.432799"/>
<rect x="110.423" y="10.4667" width="12.2692" height="10.4667" stroke="white" stroke-width="0.432799"/>
<rect x="122.692" y="10.4667" width="12.2692" height="10.4667" stroke="white" stroke-width="0.432799"/>
<rect x="134.962" y="10.4667" width="12.2692" height="10.4667" stroke="white" stroke-width="0.432799"/>
<rect x="147.231" y="10.4667" width="12.2692" height="10.4667" stroke="white" stroke-width="0.432799"/>
<rect x="159.5" y="10.4667" width="12.2692" height="10.4667" stroke="white" stroke-width="0.432799"/>
<rect x="171.769" y="10.4667" width="12.2692" height="10.4667" stroke="white" stroke-width="0.432799"/>
<rect x="184.038" y="10.4667" width="12.2692" height="10.4667" stroke="white" stroke-width="0.432799"/>
<rect x="196.308" y="10.4667" width="12.2692" height="10.4667" stroke="white" stroke-width="0.432799"/>
<rect x="208.577" y="10.4667" width="12.2692" height="10.4667" stroke="white" stroke-width="0.432799"/>
<rect x="220.846" y="10.4667" width="12.2692" height="10.4667" stroke="white" stroke-width="0.432799"/>
<rect x="233.115" y="10.4667" width="12.2693" height="10.4667" stroke="white" stroke-width="0.432799"/>
<rect x="245.385" y="10.4667" width="12.2692" height="10.4667" stroke="white" stroke-width="0.432799"/>
<rect x="257.654" y="10.4667" width="12.2692" height="10.4667" stroke="white" stroke-width="0.432799"/>
<rect x="269.923" y="10.4667" width="12.2692" height="10.4667" stroke="white" stroke-width="0.432799"/>
<rect x="282.192" y="10.4667" width="12.2693" height="10.4667" stroke="white" stroke-width="0.432799"/>
<rect x="294.462" y="10.4667" width="12.2692" height="10.4667" stroke="white" stroke-width="0.432799"/>
<rect x="306.731" y="10.4667" width="12.2692" height="10.4667" stroke="white" stroke-width="0.432799"/>
<rect y="20.9333" width="12.2692" height="10.4667" stroke="white" stroke-width="0.432799"/>
<rect x="12.2692" y="20.9333" width="12.2692" height="10.4667" stroke="white" stroke-width="0.432799"/>
<rect x="24.5385" y="20.9333" width="12.2692" height="10.4667" stroke="white" stroke-width="0.432799"/>
<rect x="36.8077" y="20.9333" width="12.2692" height="10.4667" stroke="white" stroke-width="0.432799"/>
<rect x="49.0769" y="20.9333" width="12.2692" height="10.4667" stroke="white" stroke-width="0.432799"/>
<rect x="61.3462" y="20.9333" width="12.2692" height="10.4667" stroke="white" stroke-width="0.432799"/>
<rect x="73.6154" y="20.9333" width="12.2692" height="10.4667" stroke="white" stroke-width="0.432799"/>
<rect x="85.8846" y="20.9333" width="12.2692" height="10.4667" stroke="white" stroke-width="0.432799"/>
<rect x="98.1539" y="20.9333" width="12.2692" height="10.4667" stroke="white" stroke-width="0.432799"/>
<rect x="110.423" y="20.9333" width="12.2692" height="10.4667" stroke="white" stroke-width="0.432799"/>
<rect x="122.692" y="20.9333" width="12.2692" height="10.4667" stroke="white" stroke-width="0.432799"/>
<rect x="134.962" y="20.9333" width="12.2692" height="10.4667" stroke="white" stroke-width="0.432799"/>
<rect x="147.231" y="20.9333" width="12.2692" height="10.4667" stroke="white" stroke-width="0.432799"/>
<rect x="159.5" y="20.9333" width="12.2692" height="10.4667" stroke="white" stroke-width="0.432799"/>
<rect x="171.769" y="20.9333" width="12.2692" height="10.4667" stroke="white" stroke-width="0.432799"/>
<rect x="184.038" y="20.9333" width="12.2692" height="10.4667" stroke="white" stroke-width="0.432799"/>
<rect x="196.308" y="20.9333" width="12.2692" height="10.4667" stroke="white" stroke-width="0.432799"/>
<rect x="208.577" y="20.9333" width="12.2692" height="10.4667" stroke="white" stroke-width="0.432799"/>
<rect x="220.846" y="20.9333" width="12.2692" height="10.4667" stroke="white" stroke-width="0.432799"/>
<rect x="233.115" y="20.9333" width="12.2693" height="10.4667" stroke="white" stroke-width="0.432799"/>
<rect x="245.385" y="20.9333" width="12.2692" height="10.4667" stroke="white" stroke-width="0.432799"/>
<rect x="257.654" y="20.9333" width="12.2692" height="10.4667" stroke="white" stroke-width="0.432799"/>
<rect x="269.923" y="20.9333" width="12.2692" height="10.4667" stroke="white" stroke-width="0.432799"/>
<rect x="282.192" y="20.9333" width="12.2693" height="10.4667" stroke="white" stroke-width="0.432799"/>
<rect x="294.462" y="20.9333" width="12.2692" height="10.4667" stroke="white" stroke-width="0.432799"/>
<rect x="306.731" y="20.9333" width="12.2692" height="10.4667" stroke="white" stroke-width="0.432799"/>
<rect y="31.4" width="12.2692" height="10.4667" stroke="white" stroke-width="0.432799"/>
<rect x="12.2692" y="31.4" width="12.2692" height="10.4667" stroke="white" stroke-width="0.432799"/>
<rect x="24.5385" y="31.4" width="12.2692" height="10.4667" stroke="white" stroke-width="0.432799"/>
<rect x="36.8077" y="31.4" width="12.2692" height="10.4667" stroke="white" stroke-width="0.432799"/>
<rect x="49.0769" y="31.4" width="12.2692" height="10.4667" stroke="white" stroke-width="0.432799"/>
<rect x="61.3462" y="31.4" width="12.2692" height="10.4667" stroke="white" stroke-width="0.432799"/>
<rect x="73.6154" y="31.4" width="12.2692" height="10.4667" stroke="white" stroke-width="0.432799"/>
<rect x="85.8846" y="31.4" width="12.2692" height="10.4667" stroke="white" stroke-width="0.432799"/>
<rect x="98.1539" y="31.4" width="12.2692" height="10.4667" stroke="white" stroke-width="0.432799"/>
<rect x="110.423" y="31.4" width="12.2692" height="10.4667" stroke="white" stroke-width="0.432799"/>
<rect x="122.692" y="31.4" width="12.2692" height="10.4667" stroke="white" stroke-width="0.432799"/>
<rect x="134.962" y="31.4" width="12.2692" height="10.4667" stroke="white" stroke-width="0.432799"/>
<rect x="147.231" y="31.4" width="12.2692" height="10.4667" stroke="white" stroke-width="0.432799"/>
<rect x="159.5" y="31.4" width="12.2692" height="10.4667" stroke="white" stroke-width="0.432799"/>
<rect x="171.769" y="31.4" width="12.2692" height="10.4667" stroke="white" stroke-width="0.432799"/>
<rect x="184.038" y="31.4" width="12.2692" height="10.4667" stroke="white" stroke-width="0.432799"/>
<rect x="196.308" y="31.4" width="12.2692" height="10.4667" stroke="white" stroke-width="0.432799"/>
<rect x="208.577" y="31.4" width="12.2692" height="10.4667" stroke="white" stroke-width="0.432799"/>
<rect x="220.846" y="31.4" width="12.2692" height="10.4667" stroke="white" stroke-width="0.432799"/>
<rect x="233.115" y="31.4" width="12.2693" height="10.4667" stroke="white" stroke-width="0.432799"/>
<rect x="245.385" y="31.4" width="12.2692" height="10.4667" stroke="white" stroke-width="0.432799"/>
<rect x="257.654" y="31.4" width="12.2692" height="10.4667" stroke="white" stroke-width="0.432799"/>
<rect x="269.923" y="31.4" width="12.2692" height="10.4667" stroke="white" stroke-width="0.432799"/>
<rect x="282.192" y="31.4" width="12.2693" height="10.4667" stroke="white" stroke-width="0.432799"/>
<rect x="294.462" y="31.4" width="12.2692" height="10.4667" stroke="white" stroke-width="0.432799"/>
<rect x="306.731" y="31.4" width="12.2692" height="10.4667" stroke="white" stroke-width="0.432799"/>
<rect y="41.8667" width="12.2692" height="10.4667" stroke="white" stroke-width="0.432799"/>
<rect x="12.2692" y="41.8667" width="12.2692" height="10.4667" stroke="white" stroke-width="0.432799"/>
<rect x="24.5385" y="41.8667" width="12.2692" height="10.4667" stroke="white" stroke-width="0.432799"/>
<rect x="36.8077" y="41.8667" width="12.2692" height="10.4667" stroke="white" stroke-width="0.432799"/>
<rect x="49.0769" y="41.8667" width="12.2692" height="10.4667" stroke="white" stroke-width="0.432799"/>
<rect x="61.3462" y="41.8667" width="12.2692" height="10.4667" stroke="white" stroke-width="0.432799"/>
<rect x="73.6154" y="41.8667" width="12.2692" height="10.4667" stroke="white" stroke-width="0.432799"/>
<rect x="85.8846" y="41.8667" width="12.2692" height="10.4667" stroke="white" stroke-width="0.432799"/>
<rect x="98.1539" y="41.8667" width="12.2692" height="10.4667" stroke="white" stroke-width="0.432799"/>
<rect x="110.423" y="41.8667" width="12.2692" height="10.4667" stroke="white" stroke-width="0.432799"/>
<rect x="122.692" y="41.8667" width="12.2692" height="10.4667" stroke="white" stroke-width="0.432799"/>
<rect x="134.962" y="41.8667" width="12.2692" height="10.4667" stroke="white" stroke-width="0.432799"/>
<rect x="147.231" y="41.8667" width="12.2692" height="10.4667" stroke="white" stroke-width="0.432799"/>
<rect x="159.5" y="41.8667" width="12.2692" height="10.4667" stroke="white" stroke-width="0.432799"/>
<rect x="171.769" y="41.8667" width="12.2692" height="10.4667" stroke="white" stroke-width="0.432799"/>
<rect x="184.038" y="41.8667" width="12.2692" height="10.4667" stroke="white" stroke-width="0.432799"/>
<rect x="196.308" y="41.8667" width="12.2692" height="10.4667" stroke="white" stroke-width="0.432799"/>
<rect x="208.577" y="41.8667" width="12.2692" height="10.4667" stroke="white" stroke-width="0.432799"/>
<rect x="220.846" y="41.8667" width="12.2692" height="10.4667" stroke="white" stroke-width="0.432799"/>
<rect x="233.115" y="41.8667" width="12.2693" height="10.4667" stroke="white" stroke-width="0.432799"/>
<rect x="245.385" y="41.8667" width="12.2692" height="10.4667" stroke="white" stroke-width="0.432799"/>
<rect x="257.654" y="41.8667" width="12.2692" height="10.4667" stroke="white" stroke-width="0.432799"/>
<rect x="269.923" y="41.8667" width="12.2692" height="10.4667" stroke="white" stroke-width="0.432799"/>
<rect x="282.192" y="41.8667" width="12.2693" height="10.4667" stroke="white" stroke-width="0.432799"/>
<rect x="294.462" y="41.8667" width="12.2692" height="10.4667" stroke="white" stroke-width="0.432799"/>
<rect x="306.731" y="41.8667" width="12.2692" height="10.4667" stroke="white" stroke-width="0.432799"/>
<rect y="52.3333" width="12.2692" height="10.4667" stroke="white" stroke-width="0.432799"/>
<rect x="12.2692" y="52.3333" width="12.2692" height="10.4667" stroke="white" stroke-width="0.432799"/>
<rect x="24.5385" y="52.3333" width="12.2692" height="10.4667" stroke="white" stroke-width="0.432799"/>
<rect x="36.8077" y="52.3333" width="12.2692" height="10.4667" stroke="white" stroke-width="0.432799"/>
<rect x="49.0769" y="52.3333" width="12.2692" height="10.4667" stroke="white" stroke-width="0.432799"/>
<rect x="61.3462" y="52.3333" width="12.2692" height="10.4667" stroke="white" stroke-width="0.432799"/>
<rect x="73.6154" y="52.3333" width="12.2692" height="10.4667" stroke="white" stroke-width="0.432799"/>
<rect x="85.8846" y="52.3333" width="12.2692" height="10.4667" stroke="white" stroke-width="0.432799"/>
<rect x="98.1539" y="52.3333" width="12.2692" height="10.4667" stroke="white" stroke-width="0.432799"/>
<rect x="110.423" y="52.3333" width="12.2692" height="10.4667" stroke="white" stroke-width="0.432799"/>
<rect x="122.692" y="52.3333" width="12.2692" height="10.4667" stroke="white" stroke-width="0.432799"/>
<rect x="134.962" y="52.3333" width="12.2692" height="10.4667" stroke="white" stroke-width="0.432799"/>
<rect x="147.231" y="52.3333" width="12.2692" height="10.4667" stroke="white" stroke-width="0.432799"/>
<rect x="159.5" y="52.3333" width="12.2692" height="10.4667" stroke="white" stroke-width="0.432799"/>
<rect x="171.769" y="52.3333" width="12.2692" height="10.4667" stroke="white" stroke-width="0.432799"/>
<rect x="184.038" y="52.3333" width="12.2692" height="10.4667" stroke="white" stroke-width="0.432799"/>
<rect x="196.308" y="52.3333" width="12.2692" height="10.4667" stroke="white" stroke-width="0.432799"/>
<rect x="208.577" y="52.3333" width="12.2692" height="10.4667" stroke="white" stroke-width="0.432799"/>
<rect x="220.846" y="52.3333" width="12.2692" height="10.4667" stroke="white" stroke-width="0.432799"/>
<rect x="233.115" y="52.3333" width="12.2693" height="10.4667" stroke="white" stroke-width="0.432799"/>
<rect x="245.385" y="52.3333" width="12.2692" height="10.4667" stroke="white" stroke-width="0.432799"/>
<rect x="257.654" y="52.3333" width="12.2692" height="10.4667" stroke="white" stroke-width="0.432799"/>
<rect x="269.923" y="52.3333" width="12.2692" height="10.4667" stroke="white" stroke-width="0.432799"/>
<rect x="282.192" y="52.3333" width="12.2693" height="10.4667" stroke="white" stroke-width="0.432799"/>
<rect x="294.462" y="52.3333" width="12.2692" height="10.4667" stroke="white" stroke-width="0.432799"/>
<rect x="306.731" y="52.3333" width="12.2692" height="10.4667" stroke="white" stroke-width="0.432799"/>
<rect y="62.8" width="12.2692" height="10.4667" stroke="white" stroke-width="0.432799"/>
<rect x="12.2692" y="62.8" width="12.2692" height="10.4667" stroke="white" stroke-width="0.432799"/>
<rect x="24.5385" y="62.8" width="12.2692" height="10.4667" stroke="white" stroke-width="0.432799"/>
<rect x="36.8077" y="62.8" width="12.2692" height="10.4667" stroke="white" stroke-width="0.432799"/>
<rect x="49.0769" y="62.8" width="12.2692" height="10.4667" stroke="white" stroke-width="0.432799"/>
<rect x="61.3462" y="62.8" width="12.2692" height="10.4667" stroke="white" stroke-width="0.432799"/>
<rect x="73.6154" y="62.8" width="12.2692" height="10.4667" stroke="white" stroke-width="0.432799"/>
<rect x="85.8846" y="62.8" width="12.2692" height="10.4667" stroke="white" stroke-width="0.432799"/>
<rect x="98.1539" y="62.8" width="12.2692" height="10.4667" stroke="white" stroke-width="0.432799"/>
<rect x="110.423" y="62.8" width="12.2692" height="10.4667" stroke="white" stroke-width="0.432799"/>
<rect x="122.692" y="62.8" width="12.2692" height="10.4667" stroke="white" stroke-width="0.432799"/>
<rect x="134.962" y="62.8" width="12.2692" height="10.4667" stroke="white" stroke-width="0.432799"/>
<rect x="147.231" y="62.8" width="12.2692" height="10.4667" stroke="white" stroke-width="0.432799"/>
<rect x="159.5" y="62.8" width="12.2692" height="10.4667" stroke="white" stroke-width="0.432799"/>
<rect x="171.769" y="62.8" width="12.2692" height="10.4667" stroke="white" stroke-width="0.432799"/>
<rect x="184.038" y="62.8" width="12.2692" height="10.4667" stroke="white" stroke-width="0.432799"/>
<rect x="196.308" y="62.8" width="12.2692" height="10.4667" stroke="white" stroke-width="0.432799"/>
<rect x="208.577" y="62.8" width="12.2692" height="10.4667" stroke="white" stroke-width="0.432799"/>
<rect x="220.846" y="62.8" width="12.2692" height="10.4667" stroke="white" stroke-width="0.432799"/>
<rect x="233.115" y="62.8" width="12.2693" height="10.4667" stroke="white" stroke-width="0.432799"/>
<rect x="245.385" y="62.8" width="12.2692" height="10.4667" stroke="white" stroke-width="0.432799"/>
<rect x="257.654" y="62.8" width="12.2692" height="10.4667" stroke="white" stroke-width="0.432799"/>
<rect x="269.923" y="62.8" width="12.2692" height="10.4667" stroke="white" stroke-width="0.432799"/>
<rect x="282.192" y="62.8" width="12.2693" height="10.4667" stroke="white" stroke-width="0.432799"/>
<rect x="294.462" y="62.8" width="12.2692" height="10.4667" stroke="white" stroke-width="0.432799"/>
<rect x="306.731" y="62.8" width="12.2692" height="10.4667" stroke="white" stroke-width="0.432799"/>
<rect y="73.2667" width="12.2692" height="10.4667" stroke="white" stroke-width="0.432799"/>
<rect x="12.2692" y="73.2667" width="12.2692" height="10.4667" stroke="white" stroke-width="0.432799"/>
<rect x="24.5385" y="73.2667" width="12.2692" height="10.4667" stroke="white" stroke-width="0.432799"/>
<rect x="36.8077" y="73.2667" width="12.2692" height="10.4667" stroke="white" stroke-width="0.432799"/>
<rect x="49.0769" y="73.2667" width="12.2692" height="10.4667" stroke="white" stroke-width="0.432799"/>
<rect x="61.3462" y="73.2667" width="12.2692" height="10.4667" stroke="white" stroke-width="0.432799"/>
<rect x="73.6154" y="73.2667" width="12.2692" height="10.4667" stroke="white" stroke-width="0.432799"/>
<rect x="85.8846" y="73.2667" width="12.2692" height="10.4667" stroke="white" stroke-width="0.432799"/>
<rect x="98.1539" y="73.2667" width="12.2692" height="10.4667" stroke="white" stroke-width="0.432799"/>
<rect x="110.423" y="73.2667" width="12.2692" height="10.4667" stroke="white" stroke-width="0.432799"/>
<rect x="122.692" y="73.2667" width="12.2692" height="10.4667" stroke="white" stroke-width="0.432799"/>
<rect x="134.962" y="73.2667" width="12.2692" height="10.4667" stroke="white" stroke-width="0.432799"/>
<rect x="147.231" y="73.2667" width="12.2692" height="10.4667" stroke="white" stroke-width="0.432799"/>
<rect x="159.5" y="73.2667" width="12.2692" height="10.4667" stroke="white" stroke-width="0.432799"/>
<rect x="171.769" y="73.2667" width="12.2692" height="10.4667" stroke="white" stroke-width="0.432799"/>
<rect x="184.038" y="73.2667" width="12.2692" height="10.4667" stroke="white" stroke-width="0.432799"/>
<rect x="196.308" y="73.2667" width="12.2692" height="10.4667" stroke="white" stroke-width="0.432799"/>
<rect x="208.577" y="73.2667" width="12.2692" height="10.4667" stroke="white" stroke-width="0.432799"/>
<rect x="220.846" y="73.2667" width="12.2692" height="10.4667" stroke="white" stroke-width="0.432799"/>
<rect x="233.115" y="73.2667" width="12.2693" height="10.4667" stroke="white" stroke-width="0.432799"/>
<rect x="245.385" y="73.2667" width="12.2692" height="10.4667" stroke="white" stroke-width="0.432799"/>
<rect x="257.654" y="73.2667" width="12.2692" height="10.4667" stroke="white" stroke-width="0.432799"/>
<rect x="269.923" y="73.2667" width="12.2692" height="10.4667" stroke="white" stroke-width="0.432799"/>
<rect x="282.192" y="73.2667" width="12.2693" height="10.4667" stroke="white" stroke-width="0.432799"/>
<rect x="294.462" y="73.2667" width="12.2692" height="10.4667" stroke="white" stroke-width="0.432799"/>
<rect y="83.7333" width="12.2692" height="10.4667" stroke="white" stroke-width="0.432799"/>
<rect x="12.2692" y="83.7333" width="12.2692" height="10.4667" stroke="white" stroke-width="0.432799"/>
<rect x="24.5385" y="83.7333" width="12.2692" height="10.4667" stroke="white" stroke-width="0.432799"/>
<rect x="36.8077" y="83.7333" width="12.2692" height="10.4667" stroke="white" stroke-width="0.432799"/>
<rect x="49.0769" y="83.7333" width="12.2692" height="10.4667" stroke="white" stroke-width="0.432799"/>
<rect x="61.3462" y="83.7333" width="12.2692" height="10.4667" stroke="white" stroke-width="0.432799"/>
<rect x="73.6154" y="83.7333" width="12.2692" height="10.4667" stroke="white" stroke-width="0.432799"/>
<rect x="85.8846" y="83.7333" width="12.2692" height="10.4667" stroke="white" stroke-width="0.432799"/>
<rect x="98.1539" y="83.7333" width="12.2692" height="10.4667" stroke="white" stroke-width="0.432799"/>
<rect x="110.423" y="83.7333" width="12.2692" height="10.4667" stroke="white" stroke-width="0.432799"/>
<rect x="122.692" y="83.7333" width="12.2692" height="10.4667" stroke="white" stroke-width="0.432799"/>
<rect x="134.962" y="83.7333" width="12.2692" height="10.4667" stroke="white" stroke-width="0.432799"/>
<rect x="147.231" y="83.7333" width="12.2692" height="10.4667" stroke="white" stroke-width="0.432799"/>
<rect x="159.5" y="83.7333" width="12.2692" height="10.4667" stroke="white" stroke-width="0.432799"/>
<rect x="171.769" y="83.7333" width="12.2692" height="10.4667" stroke="white" stroke-width="0.432799"/>
<rect x="184.038" y="83.7333" width="12.2692" height="10.4667" stroke="white" stroke-width="0.432799"/>
<rect x="196.308" y="83.7333" width="12.2692" height="10.4667" stroke="white" stroke-width="0.432799"/>
<rect x="208.577" y="83.7333" width="12.2692" height="10.4667" stroke="white" stroke-width="0.432799"/>
<rect x="220.846" y="83.7333" width="12.2692" height="10.4667" stroke="white" stroke-width="0.432799"/>
<rect x="233.115" y="83.7333" width="12.2693" height="10.4667" stroke="white" stroke-width="0.432799"/>
<rect x="245.385" y="83.7333" width="12.2692" height="10.4667" stroke="white" stroke-width="0.432799"/>
<rect x="257.654" y="83.7333" width="12.2692" height="10.4667" stroke="white" stroke-width="0.432799"/>
<rect x="269.923" y="83.7333" width="12.2692" height="10.4667" stroke="white" stroke-width="0.432799"/>
<rect x="282.192" y="83.7333" width="12.2693" height="10.4667" stroke="white" stroke-width="0.432799"/>
<rect x="294.462" y="83.7333" width="12.2692" height="10.4667" stroke="white" stroke-width="0.432799"/>
<rect x="306.731" y="83.7333" width="12.2692" height="10.4667" stroke="white" stroke-width="0.432799"/>
<rect y="94.2" width="12.2692" height="10.4667" stroke="white" stroke-width="0.432799"/>
<rect x="12.2692" y="94.2" width="12.2692" height="10.4667" stroke="white" stroke-width="0.432799"/>
<rect x="24.5385" y="94.2" width="12.2692" height="10.4667" stroke="white" stroke-width="0.432799"/>
<rect x="36.8077" y="94.2" width="12.2692" height="10.4667" stroke="white" stroke-width="0.432799"/>
<rect x="49.0769" y="94.2" width="12.2692" height="10.4667" stroke="white" stroke-width="0.432799"/>
<rect x="61.3462" y="94.2" width="12.2692" height="10.4667" stroke="white" stroke-width="0.432799"/>
<rect x="73.6154" y="94.2" width="12.2692" height="10.4667" stroke="white" stroke-width="0.432799"/>
<rect x="85.8846" y="94.2" width="12.2692" height="10.4667" stroke="white" stroke-width="0.432799"/>
<rect x="98.1539" y="94.2" width="12.2692" height="10.4667" stroke="white" stroke-width="0.432799"/>
<rect x="110.423" y="94.2" width="12.2692" height="10.4667" stroke="white" stroke-width="0.432799"/>
<rect x="122.692" y="94.2" width="12.2692" height="10.4667" stroke="white" stroke-width="0.432799"/>
<rect x="134.962" y="94.2" width="12.2692" height="10.4667" stroke="white" stroke-width="0.432799"/>
<rect x="147.231" y="94.2" width="12.2692" height="10.4667" stroke="white" stroke-width="0.432799"/>
<rect x="159.5" y="94.2" width="12.2692" height="10.4667" stroke="white" stroke-width="0.432799"/>
<rect x="171.769" y="94.2" width="12.2692" height="10.4667" stroke="white" stroke-width="0.432799"/>
<rect x="184.038" y="94.2" width="12.2692" height="10.4667" stroke="white" stroke-width="0.432799"/>
<rect x="196.308" y="94.2" width="12.2692" height="10.4667" stroke="white" stroke-width="0.432799"/>
<rect x="208.577" y="94.2" width="12.2692" height="10.4667" stroke="white" stroke-width="0.432799"/>
<rect x="220.846" y="94.2" width="12.2692" height="10.4667" stroke="white" stroke-width="0.432799"/>
<rect x="233.115" y="94.2" width="12.2693" height="10.4667" stroke="white" stroke-width="0.432799"/>
<rect x="245.385" y="94.2" width="12.2692" height="10.4667" stroke="white" stroke-width="0.432799"/>
<rect x="257.654" y="94.2" width="12.2692" height="10.4667" stroke="white" stroke-width="0.432799"/>
<rect x="269.923" y="94.2" width="12.2692" height="10.4667" stroke="white" stroke-width="0.432799"/>
<rect x="282.192" y="94.2" width="12.2693" height="10.4667" stroke="white" stroke-width="0.432799"/>
<rect x="294.462" y="94.2" width="12.2692" height="10.4667" stroke="white" stroke-width="0.432799"/>
<rect x="306.731" y="94.2" width="12.2692" height="10.4667" stroke="white" stroke-width="0.432799"/>
<rect y="104.667" width="12.2692" height="10.4667" stroke="white" stroke-width="0.432799"/>
<rect x="12.2692" y="104.667" width="12.2692" height="10.4667" stroke="white" stroke-width="0.432799"/>
<rect x="24.5385" y="104.667" width="12.2692" height="10.4667" stroke="white" stroke-width="0.432799"/>
<rect x="36.8077" y="104.667" width="12.2692" height="10.4667" stroke="white" stroke-width="0.432799"/>
<rect x="49.0769" y="104.667" width="12.2692" height="10.4667" stroke="white" stroke-width="0.432799"/>
<rect x="61.3462" y="104.667" width="12.2692" height="10.4667" stroke="white" stroke-width="0.432799"/>
<rect x="73.6154" y="104.667" width="12.2692" height="10.4667" stroke="white" stroke-width="0.432799"/>
<rect x="85.8846" y="104.667" width="12.2692" height="10.4667" stroke="white" stroke-width="0.432799"/>
<rect x="98.1539" y="104.667" width="12.2692" height="10.4667" stroke="white" stroke-width="0.432799"/>
<rect x="110.423" y="104.667" width="12.2692" height="10.4667" stroke="white" stroke-width="0.432799"/>
<rect x="122.692" y="104.667" width="12.2692" height="10.4667" stroke="white" stroke-width="0.432799"/>
<rect x="134.962" y="104.667" width="12.2692" height="10.4667" stroke="white" stroke-width="0.432799"/>
<rect x="147.231" y="104.667" width="12.2692" height="10.4667" stroke="white" stroke-width="0.432799"/>
<rect x="159.5" y="104.667" width="12.2692" height="10.4667" stroke="white" stroke-width="0.432799"/>
<rect x="171.769" y="104.667" width="12.2692" height="10.4667" stroke="white" stroke-width="0.432799"/>
<rect x="184.038" y="104.667" width="12.2692" height="10.4667" stroke="white" stroke-width="0.432799"/>
<rect x="196.308" y="104.667" width="12.2692" height="10.4667" stroke="white" stroke-width="0.432799"/>
<rect x="208.577" y="104.667" width="12.2692" height="10.4667" stroke="white" stroke-width="0.432799"/>
<rect x="220.846" y="104.667" width="12.2692" height="10.4667" stroke="white" stroke-width="0.432799"/>
<rect x="233.115" y="104.667" width="12.2693" height="10.4667" stroke="white" stroke-width="0.432799"/>
<rect x="245.385" y="104.667" width="12.2692" height="10.4667" stroke="white" stroke-width="0.432799"/>
<rect x="257.654" y="104.667" width="12.2692" height="10.4667" stroke="white" stroke-width="0.432799"/>
<rect x="269.923" y="104.667" width="12.2692" height="10.4667" stroke="white" stroke-width="0.432799"/>
<rect x="282.192" y="104.667" width="12.2693" height="10.4667" stroke="white" stroke-width="0.432799"/>
<rect x="294.462" y="104.667" width="12.2692" height="10.4667" stroke="white" stroke-width="0.432799"/>
<rect x="306.731" y="104.667" width="12.2692" height="10.4667" stroke="white" stroke-width="0.432799"/>
<rect y="115.133" width="12.2692" height="10.4667" stroke="white" stroke-width="0.432799"/>
<rect x="12.2692" y="115.133" width="12.2692" height="10.4667" stroke="white" stroke-width="0.432799"/>
<rect x="24.5385" y="115.133" width="12.2692" height="10.4667" stroke="white" stroke-width="0.432799"/>
<rect x="36.8077" y="115.133" width="12.2692" height="10.4667" stroke="white" stroke-width="0.432799"/>
<rect x="49.0769" y="115.133" width="12.2692" height="10.4667" stroke="white" stroke-width="0.432799"/>
<rect x="61.3462" y="115.133" width="12.2692" height="10.4667" stroke="white" stroke-width="0.432799"/>
<rect x="73.6154" y="115.133" width="12.2692" height="10.4667" stroke="white" stroke-width="0.432799"/>
<rect x="85.8846" y="115.133" width="12.2692" height="10.4667" stroke="white" stroke-width="0.432799"/>
<rect x="98.1539" y="115.133" width="12.2692" height="10.4667" stroke="white" stroke-width="0.432799"/>
<rect x="110.423" y="115.133" width="12.2692" height="10.4667" stroke="white" stroke-width="0.432799"/>
<rect x="122.692" y="115.133" width="12.2692" height="10.4667" stroke="white" stroke-width="0.432799"/>
<rect x="134.962" y="115.133" width="12.2692" height="10.4667" stroke="white" stroke-width="0.432799"/>
<rect x="147.231" y="115.133" width="12.2692" height="10.4667" stroke="white" stroke-width="0.432799"/>
<rect x="159.5" y="115.133" width="12.2692" height="10.4667" stroke="white" stroke-width="0.432799"/>
<rect x="171.769" y="115.133" width="12.2692" height="10.4667" stroke="white" stroke-width="0.432799"/>
<rect x="184.038" y="115.133" width="12.2692" height="10.4667" stroke="white" stroke-width="0.432799"/>
<rect x="196.308" y="115.133" width="12.2692" height="10.4667" stroke="white" stroke-width="0.432799"/>
<rect x="208.577" y="115.133" width="12.2692" height="10.4667" stroke="white" stroke-width="0.432799"/>
<rect x="220.846" y="115.133" width="12.2692" height="10.4667" stroke="white" stroke-width="0.432799"/>
<rect x="233.115" y="115.133" width="12.2693" height="10.4667" stroke="white" stroke-width="0.432799"/>
<rect x="245.385" y="115.133" width="12.2692" height="10.4667" stroke="white" stroke-width="0.432799"/>
<rect x="257.654" y="115.133" width="12.2692" height="10.4667" stroke="white" stroke-width="0.432799"/>
<rect x="269.923" y="115.133" width="12.2692" height="10.4667" stroke="white" stroke-width="0.432799"/>
<rect x="282.192" y="115.133" width="12.2693" height="10.4667" stroke="white" stroke-width="0.432799"/>
<rect x="294.462" y="115.133" width="12.2692" height="10.4667" stroke="white" stroke-width="0.432799"/>
<rect x="306.731" y="115.133" width="12.2692" height="10.4667" stroke="white" stroke-width="0.432799"/>
<rect y="125.6" width="12.2692" height="10.4667" stroke="white" stroke-width="0.432799"/>
<rect x="12.2692" y="125.6" width="12.2692" height="10.4667" stroke="white" stroke-width="0.432799"/>
<rect x="24.5385" y="125.6" width="12.2692" height="10.4667" stroke="white" stroke-width="0.432799"/>
<rect x="36.8077" y="125.6" width="12.2692" height="10.4667" stroke="white" stroke-width="0.432799"/>
<rect x="49.0769" y="125.6" width="12.2692" height="10.4667" stroke="white" stroke-width="0.432799"/>
<rect x="61.3462" y="125.6" width="12.2692" height="10.4667" stroke="white" stroke-width="0.432799"/>
<rect x="73.6154" y="125.6" width="12.2692" height="10.4667" stroke="white" stroke-width="0.432799"/>
<rect x="85.8846" y="125.6" width="12.2692" height="10.4667" stroke="white" stroke-width="0.432799"/>
<rect x="98.1539" y="125.6" width="12.2692" height="10.4667" stroke="white" stroke-width="0.432799"/>
<rect x="110.423" y="125.6" width="12.2692" height="10.4667" stroke="white" stroke-width="0.432799"/>
<rect x="122.692" y="125.6" width="12.2692" height="10.4667" stroke="white" stroke-width="0.432799"/>
<rect x="134.962" y="125.6" width="12.2692" height="10.4667" stroke="white" stroke-width="0.432799"/>
<rect x="147.231" y="125.6" width="12.2692" height="10.4667" stroke="white" stroke-width="0.432799"/>
<rect x="159.5" y="125.6" width="12.2692" height="10.4667" stroke="white" stroke-width="0.432799"/>
<rect x="171.769" y="125.6" width="12.2692" height="10.4667" stroke="white" stroke-width="0.432799"/>
<rect x="184.038" y="125.6" width="12.2692" height="10.4667" stroke="white" stroke-width="0.432799"/>
<rect x="196.308" y="125.6" width="12.2692" height="10.4667" stroke="white" stroke-width="0.432799"/>
<rect x="208.577" y="125.6" width="12.2692" height="10.4667" stroke="white" stroke-width="0.432799"/>
<rect x="220.846" y="125.6" width="12.2692" height="10.4667" stroke="white" stroke-width="0.432799"/>
<rect x="233.115" y="125.6" width="12.2693" height="10.4667" stroke="white" stroke-width="0.432799"/>
<rect x="245.385" y="125.6" width="12.2692" height="10.4667" stroke="white" stroke-width="0.432799"/>
<rect x="257.654" y="125.6" width="12.2692" height="10.4667" stroke="white" stroke-width="0.432799"/>
<rect x="269.923" y="125.6" width="12.2692" height="10.4667" stroke="white" stroke-width="0.432799"/>
<rect x="282.192" y="125.6" width="12.2693" height="10.4667" stroke="white" stroke-width="0.432799"/>
<rect x="294.462" y="125.6" width="12.2692" height="10.4667" stroke="white" stroke-width="0.432799"/>
<rect x="306.731" y="125.6" width="12.2692" height="10.4667" stroke="white" stroke-width="0.432799"/>
<rect y="136.067" width="12.2692" height="10.4667" stroke="white" stroke-width="0.432799"/>
<rect x="12.2692" y="136.067" width="12.2692" height="10.4667" stroke="white" stroke-width="0.432799"/>
<rect x="24.5385" y="136.067" width="12.2692" height="10.4667" stroke="white" stroke-width="0.432799"/>
<rect x="36.8077" y="136.067" width="12.2692" height="10.4667" stroke="white" stroke-width="0.432799"/>
<rect x="49.0769" y="136.067" width="12.2692" height="10.4667" stroke="white" stroke-width="0.432799"/>
<rect x="61.3462" y="136.067" width="12.2692" height="10.4667" stroke="white" stroke-width="0.432799"/>
<rect x="73.6154" y="136.067" width="12.2692" height="10.4667" stroke="white" stroke-width="0.432799"/>
<rect x="85.8846" y="136.067" width="12.2692" height="10.4667" stroke="white" stroke-width="0.432799"/>
<rect x="98.1539" y="136.067" width="12.2692" height="10.4667" stroke="white" stroke-width="0.432799"/>
<rect x="110.423" y="136.067" width="12.2692" height="10.4667" stroke="white" stroke-width="0.432799"/>
<rect x="122.692" y="136.067" width="12.2692" height="10.4667" stroke="white" stroke-width="0.432799"/>
<rect x="134.962" y="136.067" width="12.2692" height="10.4667" stroke="white" stroke-width="0.432799"/>
<rect x="147.231" y="136.067" width="12.2692" height="10.4667" stroke="white" stroke-width="0.432799"/>
<rect x="159.5" y="136.067" width="12.2692" height="10.4667" stroke="white" stroke-width="0.432799"/>
<rect x="171.769" y="136.067" width="12.2692" height="10.4667" stroke="white" stroke-width="0.432799"/>
<rect x="184.038" y="136.067" width="12.2692" height="10.4667" stroke="white" stroke-width="0.432799"/>
<rect x="196.308" y="136.067" width="12.2692" height="10.4667" stroke="white" stroke-width="0.432799"/>
<rect x="208.577" y="136.067" width="12.2692" height="10.4667" stroke="white" stroke-width="0.432799"/>
<rect x="220.846" y="136.067" width="12.2692" height="10.4667" stroke="white" stroke-width="0.432799"/>
<rect x="233.115" y="136.067" width="12.2693" height="10.4667" stroke="white" stroke-width="0.432799"/>
<rect x="245.385" y="136.067" width="12.2692" height="10.4667" stroke="white" stroke-width="0.432799"/>
<rect x="257.654" y="136.067" width="12.2692" height="10.4667" stroke="white" stroke-width="0.432799"/>
<rect x="269.923" y="136.067" width="12.2692" height="10.4667" stroke="white" stroke-width="0.432799"/>
<rect x="282.192" y="136.067" width="12.2693" height="10.4667" stroke="white" stroke-width="0.432799"/>
<rect x="294.462" y="136.067" width="12.2692" height="10.4667" stroke="white" stroke-width="0.432799"/>
<rect x="306.731" y="136.067" width="12.2692" height="10.4667" stroke="white" stroke-width="0.432799"/>
<rect y="146.533" width="12.2692" height="10.4667" stroke="white" stroke-width="0.432799"/>
<rect x="12.2692" y="146.533" width="12.2692" height="10.4667" stroke="white" stroke-width="0.432799"/>
<rect x="24.5385" y="146.533" width="12.2692" height="10.4667" stroke="white" stroke-width="0.432799"/>
<rect x="36.8077" y="146.533" width="12.2692" height="10.4667" stroke="white" stroke-width="0.432799"/>
<rect x="49.0769" y="146.533" width="12.2692" height="10.4667" stroke="white" stroke-width="0.432799"/>
<rect x="61.3462" y="146.533" width="12.2692" height="10.4667" stroke="white" stroke-width="0.432799"/>
<rect x="73.6154" y="146.533" width="12.2692" height="10.4667" stroke="white" stroke-width="0.432799"/>
<rect x="85.8846" y="146.533" width="12.2692" height="10.4667" stroke="white" stroke-width="0.432799"/>
<rect x="98.1539" y="146.533" width="12.2692" height="10.4667" stroke="white" stroke-width="0.432799"/>
<rect x="110.423" y="146.533" width="12.2692" height="10.4667" stroke="white" stroke-width="0.432799"/>
<rect x="122.692" y="146.533" width="12.2692" height="10.4667" stroke="white" stroke-width="0.432799"/>
<rect x="134.962" y="146.533" width="12.2692" height="10.4667" stroke="white" stroke-width="0.432799"/>
<rect x="147.231" y="146.533" width="12.2692" height="10.4667" stroke="white" stroke-width="0.432799"/>
<rect x="159.5" y="146.533" width="12.2692" height="10.4667" stroke="white" stroke-width="0.432799"/>
<rect x="171.769" y="146.533" width="12.2692" height="10.4667" stroke="white" stroke-width="0.432799"/>
<rect x="184.038" y="146.533" width="12.2692" height="10.4667" stroke="white" stroke-width="0.432799"/>
<rect x="196.308" y="146.533" width="12.2692" height="10.4667" stroke="white" stroke-width="0.432799"/>
<rect x="208.577" y="146.533" width="12.2692" height="10.4667" stroke="white" stroke-width="0.432799"/>
<rect x="220.846" y="146.533" width="12.2692" height="10.4667" stroke="white" stroke-width="0.432799"/>
<rect x="233.115" y="146.533" width="12.2693" height="10.4667" stroke="white" stroke-width="0.432799"/>
<rect x="245.385" y="146.533" width="12.2692" height="10.4667" stroke="white" stroke-width="0.432799"/>
<rect x="257.654" y="146.533" width="12.2692" height="10.4667" stroke="white" stroke-width="0.432799"/>
<rect x="269.923" y="146.533" width="12.2692" height="10.4667" stroke="white" stroke-width="0.432799"/>
<rect x="282.192" y="146.533" width="12.2693" height="10.4667" stroke="white" stroke-width="0.432799"/>
<rect x="294.462" y="146.533" width="12.2692" height="10.4667" stroke="white" stroke-width="0.432799"/>
<rect x="306.731" y="146.533" width="12.2692" height="10.4667" stroke="white" stroke-width="0.432799"/>
</mask>
<g mask="url(#mask0_2578_63088)">
<path d="M254.989 143.837H85.4797C70.1468 143.837 57.7788 136.271 57.7788 126.891V23.1989C57.7788 13.8194 70.1468 6.25366 85.4797 6.25366H254.989C270.321 6.25366 282.689 13.8194 282.689 23.1989V126.891C282.689 136.271 270.321 143.837 254.989 143.837Z" fill="url(#paint0_radial_2578_63088)"/>
</g>
<g filter="url(#filter0_b_2578_63088)">
<path d="M90.2691 117.533H89.9314C89.0311 109.357 81.8279 102.949 73.2743 102.949C70.348 102.949 67.5343 103.723 65.0582 105.048C61.7943 98.5298 55.0414 94 47.0505 94C36.0207 94 27.1294 102.728 27.1294 113.556C27.1294 115.102 27.3545 116.539 27.5796 117.975C21.5019 119.301 17 124.714 17 131.012C17 138.414 23.1902 144.491 30.7309 144.491L32.9819 144.38H87.9056L90.2691 144.491C97.8099 144.491 104 138.525 104 131.012C104 123.499 97.8099 117.533 90.2691 117.533Z" fill="url(#paint1_linear_2578_63088)" fill-opacity="0.02"/>
</g>
<path d="M90.2691 117.533H89.9314C89.0311 109.357 81.8279 102.949 73.2743 102.949C70.348 102.949 67.5343 103.723 65.0582 105.048C61.7943 98.5298 55.0414 94 47.0505 94C36.0207 94 27.1294 102.728 27.1294 113.556C27.1294 115.102 27.3545 116.539 27.5796 117.975C21.5019 119.301 17 124.714 17 131.012C17 138.414 23.1902 144.491 30.7309 144.491L32.9819 144.38H87.9056L90.2691 144.491C97.8099 144.491 104 138.525 104 131.012C104 123.499 97.8099 117.533 90.2691 117.533Z" fill="url(#paint2_linear_2578_63088)"/>
<g filter="url(#filter1_d_2578_63088)">
<rect x="69" y="16" width="207" height="124.043" rx="9.78261" fill="#21214C" fill-opacity="0.02"/>
</g>
<g filter="url(#filter2_b_2578_63088)">
<rect x="69" y="16" width="207" height="124.043" rx="9.78261" fill="url(#paint3_linear_2578_63088)"/>
<rect x="69.1957" y="16.1957" width="206.609" height="123.652" rx="9.58696" stroke="#ACADAD" stroke-opacity="0.2" stroke-width="0.391304"/>
</g>
<g style="mix-blend-mode:multiply" filter="url(#filter3_b_2578_63088)">
<path d="M69 33H276V130.217C276 135.62 271.62 140 266.217 140H78.7826C73.3798 140 69 135.62 69 130.217V33Z" fill="url(#paint4_linear_2578_63088)"/>
</g>
<circle opacity="0.3" cx="78.2773" cy="24.8865" r="2.62561" fill="white"/>
<circle opacity="0.2" cx="85.1039" cy="24.8865" r="2.62561" fill="white"/>
<circle opacity="0.1" cx="91.9305" cy="24.8865" r="2.62561" fill="white"/>
<g opacity="0.5">
<path d="M159.864 93.9999H152.397C151.808 93.9999 151.33 94.4775 151.33 95.0666C151.33 95.6557 151.808 96.1333 152.397 96.1333H159.864C160.453 96.1333 160.93 95.6557 160.93 95.0666C160.93 94.4775 160.453 93.9999 159.864 93.9999Z" fill="url(#paint5_linear_2578_63088)"/>
<path d="M186.53 93.9999H166.264C165.675 93.9999 165.197 94.4775 165.197 95.0666C165.197 95.6557 165.675 96.1333 166.264 96.1333H186.53C187.12 96.1333 187.597 95.6557 187.597 95.0666C187.597 94.4775 187.12 93.9999 186.53 93.9999Z" fill="url(#paint6_linear_2578_63088)"/>
<path d="M145.997 111.067H106.53C105.941 111.067 105.464 111.544 105.464 112.133C105.464 112.722 105.941 113.2 106.53 113.2H145.997C146.586 113.2 147.064 112.722 147.064 112.133C147.064 111.544 146.586 111.067 145.997 111.067Z" fill="url(#paint7_linear_2578_63088)"/>
<path d="M192.93 119.6H153.464C152.875 119.6 152.397 120.078 152.397 120.667C152.397 121.256 152.875 121.733 153.464 121.733H192.93C193.52 121.733 193.997 121.256 193.997 120.667C193.997 120.078 193.52 119.6 192.93 119.6Z" fill="url(#paint8_linear_2578_63088)"/>
<path d="M175.864 50.2667H152.397C151.808 50.2667 151.33 50.7442 151.33 51.3333C151.33 51.9224 151.808 52.4 152.397 52.4H175.864C176.453 52.4 176.93 51.9224 176.93 51.3333C176.93 50.7442 176.453 50.2667 175.864 50.2667Z" fill="url(#paint9_linear_2578_63088)"/>
<path d="M150.264 67.3333H132.13C131.541 67.3333 131.064 67.8109 131.064 68.4C131.064 68.9891 131.541 69.4666 132.13 69.4666H150.264C150.853 69.4666 151.33 68.9891 151.33 68.4C151.33 67.8109 150.853 67.3333 150.264 67.3333Z" fill="url(#paint10_linear_2578_63088)"/>
<path d="M145.997 71.6H106.53C105.941 71.6 105.464 72.0775 105.464 72.6666C105.464 73.2557 105.941 73.7333 106.53 73.7333H145.997C146.586 73.7333 147.064 73.2557 147.064 72.6666C147.064 72.0775 146.586 71.6 145.997 71.6Z" fill="url(#paint11_linear_2578_63088)"/>
<path d="M145.997 93.9999H106.53C105.941 93.9999 105.464 94.4775 105.464 95.0666C105.464 95.6557 105.941 96.1333 106.53 96.1333H145.997C146.586 96.1333 147.064 95.6557 147.064 95.0666C147.064 94.4775 146.586 93.9999 145.997 93.9999Z" fill="url(#paint12_linear_2578_63088)"/>
<path d="M182.264 102.533H154.53C153.941 102.533 153.464 103.011 153.464 103.6C153.464 104.189 153.941 104.667 154.53 104.667H182.264C182.853 104.667 183.33 104.189 183.33 103.6C183.33 103.011 182.853 102.533 182.264 102.533Z" fill="url(#paint13_linear_2578_63088)"/>
<path d="M236.664 111.067H197.197C196.608 111.067 196.13 111.544 196.13 112.133C196.13 112.722 196.608 113.2 197.197 113.2H236.664C237.253 113.2 237.73 112.722 237.73 112.133C237.73 111.544 237.253 111.067 236.664 111.067Z" fill="url(#paint14_linear_2578_63088)"/>
<path d="M145.997 54.5333H106.53C105.941 54.5333 105.464 55.0109 105.464 55.6C105.464 56.1891 105.941 56.6667 106.53 56.6667H145.997C146.586 56.6667 147.064 56.1891 147.064 55.6C147.064 55.0109 146.586 54.5333 145.997 54.5333Z" fill="url(#paint15_linear_2578_63088)"/>
<path d="M180.13 71.6H152.397C151.808 71.6 151.33 72.0775 151.33 72.6666C151.33 73.2557 151.808 73.7333 152.397 73.7333H180.13C180.72 73.7333 181.197 73.2557 181.197 72.6666C181.197 72.0775 180.72 71.6 180.13 71.6Z" fill="url(#paint16_linear_2578_63088)"/>
<path fill-rule="evenodd" clip-rule="evenodd" d="M144.93 46H94.7971C94.208 46 93.7305 46.4776 93.7305 47.0667C93.7305 47.6558 94.208 48.1333 94.7971 48.1333H144.93C145.52 48.1333 145.997 47.6558 145.997 47.0667C145.997 46.4776 145.52 46 144.93 46ZM144.93 85.4667H94.7971C94.208 85.4667 93.7305 85.9442 93.7305 86.5333C93.7305 87.1224 94.208 87.6 94.7971 87.6H144.93C145.52 87.6 145.997 87.1224 145.997 86.5333C145.997 85.9442 145.52 85.4667 144.93 85.4667ZM176.93 85.4667H152.397C151.808 85.4667 151.33 85.9442 151.33 86.5333C151.33 87.1224 151.808 87.6 152.397 87.6H176.93C177.52 87.6 177.997 87.1224 177.997 86.5333C177.997 85.9442 177.52 85.4667 176.93 85.4667ZM106.53 89.7333H128.93C129.52 89.7333 129.997 90.2109 129.997 90.8C129.997 91.3891 129.52 91.8666 128.93 91.8666H106.53C105.941 91.8666 105.464 91.3891 105.464 90.8C105.464 90.2109 105.941 89.7333 106.53 89.7333ZM145.997 89.7333H136.397C135.808 89.7333 135.33 90.2109 135.33 90.8C135.33 91.3891 135.808 91.8666 136.397 91.8666H145.997C146.586 91.8666 147.064 91.3891 147.064 90.8C147.064 90.2109 146.586 89.7333 145.997 89.7333ZM152.397 89.7333H175.864C176.453 89.7333 176.93 90.2109 176.93 90.8C176.93 91.3891 176.453 91.8666 175.864 91.8666H152.397C151.808 91.8666 151.33 91.3891 151.33 90.8C151.33 90.2109 151.808 89.7333 152.397 89.7333ZM197.197 89.7333H183.33C182.741 89.7333 182.264 90.2109 182.264 90.8C182.264 91.3891 182.741 91.8666 183.33 91.8666H197.197C197.786 91.8666 198.264 91.3891 198.264 90.8C198.264 90.2109 197.786 89.7333 197.197 89.7333ZM192.93 94H199.33C199.92 94 200.397 94.4775 200.397 95.0666C200.397 95.6557 199.92 96.1333 199.33 96.1333H192.93C192.341 96.1333 191.864 95.6557 191.864 95.0666C191.864 94.4775 192.341 94 192.93 94ZM191.864 111.067H185.464C184.875 111.067 184.397 111.544 184.397 112.133C184.397 112.722 184.875 113.2 185.464 113.2H191.864C192.453 113.2 192.93 112.722 192.93 112.133C192.93 111.544 192.453 111.067 191.864 111.067ZM175.864 123.867H182.264C182.853 123.867 183.33 124.344 183.33 124.933C183.33 125.522 182.853 126 182.264 126H175.864C175.275 126 174.797 125.522 174.797 124.933C174.797 124.344 175.275 123.867 175.864 123.867ZM145.997 98.2667H106.53C105.941 98.2667 105.464 98.7442 105.464 99.3333C105.464 99.9224 105.941 100.4 106.53 100.4H145.997C146.586 100.4 147.064 99.9224 147.064 99.3333C147.064 98.7442 146.586 98.2667 145.997 98.2667ZM94.7971 102.533H134.264C134.853 102.533 135.33 103.011 135.33 103.6C135.33 104.189 134.853 104.667 134.264 104.667H94.7971C94.208 104.667 93.7305 104.189 93.7305 103.6C93.7305 103.011 94.208 102.533 94.7971 102.533ZM168.397 123.867H140.664C140.075 123.867 139.597 124.344 139.597 124.933C139.597 125.522 140.075 126 140.664 126H168.397C168.986 126 169.464 125.522 169.464 124.933C169.464 124.344 168.986 123.867 168.397 123.867ZM106.53 106.8H124.664C125.253 106.8 125.73 107.278 125.73 107.867C125.73 108.456 125.253 108.933 124.664 108.933H106.53C105.941 108.933 105.464 108.456 105.464 107.867C105.464 107.278 105.941 106.8 106.53 106.8ZM150.264 106.8H132.13C131.541 106.8 131.064 107.278 131.064 107.867C131.064 108.456 131.541 108.933 132.13 108.933H150.264C150.853 108.933 151.33 108.456 151.33 107.867C151.33 107.278 150.853 106.8 150.264 106.8ZM152.397 111.067H180.13C180.72 111.067 181.197 111.544 181.197 112.133C181.197 112.722 180.72 113.2 180.13 113.2H152.397C151.808 113.2 151.33 112.722 151.33 112.133C151.33 111.544 151.808 111.067 152.397 111.067ZM135.33 115.333H106.53C105.941 115.333 105.464 115.811 105.464 116.4C105.464 116.989 105.941 117.467 106.53 117.467H135.33C135.92 117.467 136.397 116.989 136.397 116.4C136.397 115.811 135.92 115.333 135.33 115.333ZM106.53 119.6H145.997C146.586 119.6 147.064 120.078 147.064 120.667C147.064 121.256 146.586 121.733 145.997 121.733H106.53C105.941 121.733 105.464 121.256 105.464 120.667C105.464 120.078 105.941 119.6 106.53 119.6ZM186.53 115.333H167.33C166.741 115.333 166.264 115.811 166.264 116.4C166.264 116.989 166.741 117.467 167.33 117.467H186.53C187.12 117.467 187.597 116.989 187.597 116.4C187.597 115.811 187.12 115.333 186.53 115.333ZM184.397 85.4667H223.864C224.453 85.4667 224.93 85.9442 224.93 86.5333C224.93 87.1224 224.453 87.6 223.864 87.6H184.397C183.808 87.6 183.33 87.1224 183.33 86.5333C183.33 85.9442 183.808 85.4667 184.397 85.4667ZM152.397 46H176.93C177.52 46 177.997 46.4776 177.997 47.0667C177.997 47.6558 177.52 48.1333 176.93 48.1333H152.397C151.808 48.1333 151.33 47.6558 151.33 47.0667C151.33 46.4776 151.808 46 152.397 46ZM128.93 50.2667H106.53C105.941 50.2667 105.464 50.7442 105.464 51.3333C105.464 51.9224 105.941 52.4 106.53 52.4H128.93C129.52 52.4 129.997 51.9224 129.997 51.3333C129.997 50.7442 129.52 50.2667 128.93 50.2667ZM136.397 50.2667H145.997C146.586 50.2667 147.064 50.7442 147.064 51.3333C147.064 51.9224 146.586 52.4 145.997 52.4H136.397C135.808 52.4 135.33 51.9224 135.33 51.3333C135.33 50.7442 135.808 50.2667 136.397 50.2667ZM197.197 50.2667H183.33C182.741 50.2667 182.264 50.7442 182.264 51.3333C182.264 51.9224 182.741 52.4 183.33 52.4H197.197C197.786 52.4 198.264 51.9224 198.264 51.3333C198.264 50.7442 197.786 50.2667 197.197 50.2667ZM152.397 54.5333H159.864C160.453 54.5333 160.93 55.0109 160.93 55.6C160.93 56.1891 160.453 56.6666 159.864 56.6666H152.397C151.808 56.6666 151.33 56.1891 151.33 55.6C151.33 55.0109 151.808 54.5333 152.397 54.5333ZM199.33 54.5333H192.93C192.341 54.5333 191.864 55.0109 191.864 55.6C191.864 56.1891 192.341 56.6666 192.93 56.6666H199.33C199.92 56.6666 200.397 56.1891 200.397 55.6C200.397 55.0109 199.92 54.5333 199.33 54.5333ZM166.264 54.5333H186.53C187.12 54.5333 187.597 55.0109 187.597 55.6C187.597 56.1891 187.12 56.6666 186.53 56.6666H166.264C165.675 56.6666 165.197 56.1891 165.197 55.6C165.197 55.0109 165.675 54.5333 166.264 54.5333ZM145.997 58.8H106.53C105.941 58.8 105.464 59.2775 105.464 59.8666C105.464 60.4557 105.941 60.9333 106.53 60.9333H145.997C146.586 60.9333 147.064 60.4557 147.064 59.8666C147.064 59.2775 146.586 58.8 145.997 58.8ZM94.7971 63.0667H134.264C134.853 63.0667 135.33 63.5442 135.33 64.1333C135.33 64.7224 134.853 65.2 134.264 65.2H94.7971C94.208 65.2 93.7305 64.7224 93.7305 64.1333C93.7305 63.5442 94.208 63.0667 94.7971 63.0667ZM182.264 63.0667H154.53C153.941 63.0667 153.464 63.5442 153.464 64.1333C153.464 64.7224 153.941 65.2 154.53 65.2H182.264C182.853 65.2 183.33 64.7224 183.33 64.1333C183.33 63.5442 182.853 63.0667 182.264 63.0667ZM106.53 67.3333H124.664C125.253 67.3333 125.73 67.8109 125.73 68.4C125.73 68.9891 125.253 69.4667 124.664 69.4667H106.53C105.941 69.4667 105.464 68.9891 105.464 68.4C105.464 67.8109 105.941 67.3333 106.53 67.3333ZM160.93 75.8666H141.73C141.141 75.8666 140.664 76.3442 140.664 76.9333C140.664 77.5224 141.141 78 141.73 78H160.93C161.52 78 161.997 77.5224 161.997 76.9333C161.997 76.3442 161.52 75.8666 160.93 75.8666ZM106.53 75.8666H135.33C135.92 75.8666 136.397 76.3442 136.397 76.9333C136.397 77.5224 135.92 78 135.33 78H106.53C105.941 78 105.464 77.5224 105.464 76.9333C105.464 76.3442 105.941 75.8666 106.53 75.8666ZM145.997 80.1333H106.53C105.941 80.1333 105.464 80.6109 105.464 81.2C105.464 81.7891 105.941 82.2667 106.53 82.2667H145.997C146.586 82.2667 147.064 81.7891 147.064 81.2C147.064 80.6109 146.586 80.1333 145.997 80.1333ZM94.7971 123.867H134.264C134.853 123.867 135.33 124.344 135.33 124.933C135.33 125.522 134.853 126 134.264 126H94.7971C94.208 126 93.7305 125.522 93.7305 124.933C93.7305 124.344 94.208 123.867 94.7971 123.867Z" fill="#C481F3"/>
</g>
<g filter="url(#filter4_b_2578_63088)">
<path d="M284.811 116.744H284.485C283.615 108.842 276.653 102.649 268.387 102.649C265.558 102.649 262.839 103.396 260.446 104.678C257.292 98.3779 250.765 94 243.042 94C232.383 94 223.79 102.435 223.79 112.9C223.79 114.394 224.007 115.783 224.225 117.171C218.351 118.452 214 123.684 214 129.77C214 136.924 219.983 142.797 227.27 142.797L229.446 142.69H282.527L284.811 142.797C292.099 142.797 298.082 137.031 298.082 129.77C298.082 122.509 292.099 116.744 284.811 116.744Z" fill="url(#paint17_linear_2578_63088)" fill-opacity="0.02"/>
</g>
<path d="M284.811 116.744H284.485C283.615 108.842 276.653 102.649 268.387 102.649C265.558 102.649 262.839 103.396 260.446 104.678C257.292 98.3779 250.765 94 243.042 94C232.383 94 223.79 102.435 223.79 112.9C223.79 114.394 224.007 115.783 224.225 117.171C218.351 118.452 214 123.684 214 129.77C214 136.924 219.983 142.797 227.27 142.797L229.446 142.69H282.527L284.811 142.797C292.099 142.797 298.082 137.031 298.082 129.77C298.082 122.509 292.099 116.744 284.811 116.744Z" fill="url(#paint18_linear_2578_63088)"/>
<g filter="url(#filter5_d_2578_63088)">
<path d="M278.545 144.374C277.315 145.222 275.689 145.222 274.459 144.374L246.557 125.146C245.582 124.474 245 123.366 245 122.181V75.9272C245 74.4126 245.945 73.0716 247.404 72.6669C251.774 71.4556 261.935 69.1766 276.543 69.1766C291.142 69.1766 301.254 71.4529 305.603 72.6648C307.059 73.0705 308 74.4093 308 75.9209V122.182C308 123.366 307.418 124.474 306.443 125.146L278.545 144.374Z" fill="url(#paint19_linear_2578_63088)"/>
</g>
<g filter="url(#filter6_b_2578_63088)">
<path d="M278.928 131.044H279.115C279.612 126.527 283.592 122.987 288.318 122.987C289.935 122.987 291.489 123.414 292.857 124.147C294.661 120.545 298.392 118.042 302.807 118.042C308.9 118.042 313.813 122.865 313.813 128.847C313.813 129.701 313.689 130.495 313.564 131.289C316.922 132.021 319.409 135.012 319.409 138.491C319.409 142.581 315.989 145.939 311.823 145.939L310.579 145.878H280.234L278.928 145.939C274.762 145.939 271.342 142.642 271.342 138.491C271.342 134.341 274.762 131.044 278.928 131.044Z" fill="url(#paint20_linear_2578_63088)" fill-opacity="0.02"/>
</g>
<path d="M278.928 131.044H279.115C279.612 126.527 283.592 122.987 288.318 122.987C289.935 122.987 291.489 123.414 292.857 124.147C294.661 120.545 298.392 118.042 302.807 118.042C308.9 118.042 313.813 122.865 313.813 128.847C313.813 129.701 313.689 130.495 313.564 131.289C316.922 132.021 319.409 135.012 319.409 138.491C319.409 142.581 315.989 145.939 311.823 145.939L310.579 145.878H280.234L278.928 145.939C274.762 145.939 271.342 142.642 271.342 138.491C271.342 134.341 274.762 131.044 278.928 131.044Z" fill="url(#paint21_linear_2578_63088)"/>
<g filter="url(#filter7_d_2578_63088)">
<rect x="60.072" y="119.497" width="50.252" height="13.4671" transform="rotate(-37.3053 60.072 119.497)" fill="white"/>
<rect x="107.79" y="87.506" width="4.05335" height="5.68613" transform="rotate(-37.3053 107.79 87.506)" fill="url(#paint22_linear_2578_63088)"/>
<path d="M111.014 85.0494L116.501 82.3741L118.496 84.9926L114.46 89.5723L111.014 85.0494Z" fill="url(#paint23_linear_2578_63088)"/>
<path d="M117.045 83.0882L143.434 63.4169L143.423 64.6235L118.042 84.3974L117.045 83.0882Z" fill="url(#paint24_linear_2578_63088)"/>
<path d="M72.0932 110.338L104.305 85.7945C105.183 85.1251 106.438 85.2946 107.108 86.1732L112.845 93.7036C113.515 94.5822 113.345 95.8371 112.467 96.5065L80.2552 121.05L72.0932 110.338Z" fill="url(#paint25_linear_2578_63088)"/>
<path d="M72.794 110.433L104.608 86.1922C105.267 85.6902 106.208 85.8173 106.71 86.4763L112.448 94.0066C112.95 94.6655 112.823 95.6067 112.164 96.1088L80.3498 120.349L72.794 110.433Z" stroke="white" stroke-opacity="0.2"/>
<rect x="60.9789" y="120.688" width="12.1204" height="10.4744" transform="rotate(-37.3053 60.9789 120.688)" fill="url(#paint26_linear_2578_63088)"/>
<g filter="url(#filter8_d_2578_63088)">
<rect x="69.7128" y="112.152" width="2.9927" height="13.4671" transform="rotate(-37.3053 69.7128 112.152)" fill="url(#paint27_linear_2578_63088)"/>
</g>
<rect x="45.6364" y="133.883" width="17.208" height="8.9781" transform="rotate(-37.3053 45.6364 133.883)" fill="url(#paint28_linear_2578_63088)"/>
<rect x="46.3371" y="133.977" width="16.208" height="7.9781" transform="rotate(-37.3053 46.3371 133.977)" stroke="white" stroke-opacity="0.7"/>
<g filter="url(#filter9_d_2578_63088)">
<rect width="2.9927" height="19.4525" rx="1" transform="matrix(-0.795417 0.606062 0.606062 0.795417 58.2582 117.117)" fill="url(#paint29_linear_2578_63088)"/>
</g>
<g filter="url(#filter10_d_2578_63088)">
<rect width="1.49635" height="13.7664" rx="0.748175" transform="matrix(-0.795417 0.606062 0.606062 0.795417 45.1902 131)" fill="url(#paint30_linear_2578_63088)"/>
</g>
</g>
<path d="M261 86H293V118H261V86ZM290.383 110.37C290.148 108.905 289.196 107.682 286.38 106.537C285.398 106.082 284.303 105.755 283.983 105.015C283.862 104.574 283.841 104.34 283.919 104.076C284.125 103.209 285.135 102.953 285.939 103.195C286.458 103.358 286.941 103.749 287.24 104.389C288.62 103.486 288.62 103.486 289.58 102.889C289.224 102.334 289.046 102.085 288.797 101.851C287.958 100.905 286.842 100.428 285.021 100.471L284.076 100.592C283.172 100.812 282.312 101.289 281.793 101.929C280.278 103.65 280.712 106.651 282.554 107.895C284.374 109.253 287.034 109.552 287.375 110.832C287.695 112.396 286.216 112.894 284.751 112.709C283.67 112.468 283.073 111.927 282.412 110.932L279.972 112.332C280.25 112.972 280.57 113.25 281.053 113.812C283.372 116.151 289.174 116.03 290.212 112.475C290.248 112.354 290.532 111.529 290.312 110.277L290.383 110.37ZM278.401 100.706H275.407C275.407 103.287 275.393 105.854 275.393 108.443C275.393 110.085 275.478 111.593 275.208 112.055C274.767 112.972 273.636 112.859 273.117 112.695C272.591 112.432 272.321 112.076 272.015 111.557C271.923 111.415 271.866 111.294 271.844 111.294L269.412 112.795C269.818 113.634 270.415 114.359 271.176 114.814C272.314 115.497 273.85 115.717 275.45 115.355C276.495 115.056 277.391 114.43 277.86 113.477C278.543 112.24 278.394 110.718 278.394 109.012C278.408 106.274 278.394 103.536 278.394 100.77L278.401 100.706Z" fill="white"/>
<defs>
<filter id="filter0_b_2578_63088" x="9.98139" y="86.9814" width="101.037" height="64.5281" filterUnits="userSpaceOnUse" color-interpolation-filters="sRGB">
<feFlood flood-opacity="0" result="BackgroundImageFix"/>
<feGaussianBlur in="BackgroundImage" stdDeviation="3.5093"/>
<feComposite in2="SourceAlpha" operator="in" result="effect1_backgroundBlur_2578_63088"/>
<feBlend mode="normal" in="SourceGraphic" in2="effect1_backgroundBlur_2578_63088" result="shape"/>
</filter>
<filter id="filter1_d_2578_63088" x="57.2609" y="12.087" width="230.478" height="147.522" filterUnits="userSpaceOnUse" color-interpolation-filters="sRGB">
<feFlood flood-opacity="0" result="BackgroundImageFix"/>
<feColorMatrix in="SourceAlpha" type="matrix" values="0 0 0 0 0 0 0 0 0 0 0 0 0 0 0 0 0 0 127 0" result="hardAlpha"/>
<feOffset dy="7.82609"/>
<feGaussianBlur stdDeviation="5.86957"/>
<feColorMatrix type="matrix" values="0 0 0 0 0.129412 0 0 0 0 0.129412 0 0 0 0 0.298039 0 0 0 0.2 0"/>
<feBlend mode="normal" in2="BackgroundImageFix" result="effect1_dropShadow_2578_63088"/>
<feBlend mode="normal" in="SourceGraphic" in2="effect1_dropShadow_2578_63088" result="shape"/>
</filter>
<filter id="filter2_b_2578_63088" x="65.087" y="12.087" width="214.826" height="131.87" filterUnits="userSpaceOnUse" color-interpolation-filters="sRGB">
<feFlood flood-opacity="0" result="BackgroundImageFix"/>
<feGaussianBlur in="BackgroundImage" stdDeviation="1.95652"/>
<feComposite in2="SourceAlpha" operator="in" result="effect1_backgroundBlur_2578_63088"/>
<feBlend mode="normal" in="SourceGraphic" in2="effect1_backgroundBlur_2578_63088" result="shape"/>
</filter>
<filter id="filter3_b_2578_63088" x="65.087" y="29.087" width="214.826" height="114.826" filterUnits="userSpaceOnUse" color-interpolation-filters="sRGB">
<feFlood flood-opacity="0" result="BackgroundImageFix"/>
<feGaussianBlur in="BackgroundImage" stdDeviation="1.95652"/>
<feComposite in2="SourceAlpha" operator="in" result="effect1_backgroundBlur_2578_63088"/>
<feBlend mode="normal" in="SourceGraphic" in2="effect1_backgroundBlur_2578_63088" result="shape"/>
</filter>
<filter id="filter4_b_2578_63088" x="210.122" y="90.1222" width="91.8371" height="56.5527" filterUnits="userSpaceOnUse" color-interpolation-filters="sRGB">
<feFlood flood-opacity="0" result="BackgroundImageFix"/>
<feGaussianBlur in="BackgroundImage" stdDeviation="1.93889"/>
<feComposite in2="SourceAlpha" operator="in" result="effect1_backgroundBlur_2578_63088"/>
<feBlend mode="normal" in="SourceGraphic" in2="effect1_backgroundBlur_2578_63088" result="shape"/>
</filter>
<filter id="filter5_d_2578_63088" x="228.904" y="59.5192" width="95.1912" height="108.025" filterUnits="userSpaceOnUse" color-interpolation-filters="sRGB">
<feFlood flood-opacity="0" result="BackgroundImageFix"/>
<feColorMatrix in="SourceAlpha" type="matrix" values="0 0 0 0 0 0 0 0 0 0 0 0 0 0 0 0 0 0 127 0" result="hardAlpha"/>
<feOffset dy="6.43825"/>
<feGaussianBlur stdDeviation="8.04781"/>
<feColorMatrix type="matrix" values="0 0 0 0 0.129412 0 0 0 0 0.129412 0 0 0 0 0.298039 0 0 0 0.2 0"/>
<feBlend mode="normal" in2="BackgroundImageFix" result="effect1_dropShadow_2578_63088"/>
<feBlend mode="normal" in="SourceGraphic" in2="effect1_dropShadow_2578_63088" result="shape"/>
</filter>
<filter id="filter6_b_2578_63088" x="267.464" y="114.165" width="55.8232" height="35.6518" filterUnits="userSpaceOnUse" color-interpolation-filters="sRGB">
<feFlood flood-opacity="0" result="BackgroundImageFix"/>
<feGaussianBlur in="BackgroundImage" stdDeviation="1.93889"/>
<feComposite in2="SourceAlpha" operator="in" result="effect1_backgroundBlur_2578_63088"/>
<feBlend mode="normal" in="SourceGraphic" in2="effect1_backgroundBlur_2578_63088" result="shape"/>
</filter>
<filter id="filter7_d_2578_63088" x="39.3003" y="61.4169" width="109.134" height="89.1396" filterUnits="userSpaceOnUse" color-interpolation-filters="sRGB">
<feFlood flood-opacity="0" result="BackgroundImageFix"/>
<feColorMatrix in="SourceAlpha" type="matrix" values="0 0 0 0 0 0 0 0 0 0 0 0 0 0 0 0 0 0 127 0" result="hardAlpha"/>
<feOffset dy="3"/>
<feGaussianBlur stdDeviation="2.5"/>
<feColorMatrix type="matrix" values="0 0 0 0 0.512977 0 0 0 0 0.512977 0 0 0 0 0.659505 0 0 0 0.15 0"/>
<feBlend mode="normal" in2="BackgroundImageFix" result="effect1_dropShadow_2578_63088"/>
<feBlend mode="normal" in="SourceGraphic" in2="effect1_dropShadow_2578_63088" result="shape"/>
</filter>
<filter id="filter8_d_2578_63088" x="67.7128" y="108.338" width="14.5424" height="16.5258" filterUnits="userSpaceOnUse" color-interpolation-filters="sRGB">
<feFlood flood-opacity="0" result="BackgroundImageFix"/>
<feColorMatrix in="SourceAlpha" type="matrix" values="0 0 0 0 0 0 0 0 0 0 0 0 0 0 0 0 0 0 127 0" result="hardAlpha"/>
<feOffset/>
<feGaussianBlur stdDeviation="1"/>
<feComposite in2="hardAlpha" operator="out"/>
<feColorMatrix type="matrix" values="0 0 0 0 0.0352941 0 0 0 0 0.490196 0 0 0 0 0.596078 0 0 0 0.2 0"/>
<feBlend mode="normal" in2="BackgroundImageFix" result="effect1_dropShadow_2578_63088"/>
<feBlend mode="normal" in="SourceGraphic" in2="effect1_dropShadow_2578_63088" result="shape"/>
</filter>
<filter id="filter9_d_2578_63088" x="54.2792" y="117.518" width="17.367" height="20.4838" filterUnits="userSpaceOnUse" color-interpolation-filters="sRGB">
<feFlood flood-opacity="0" result="BackgroundImageFix"/>
<feColorMatrix in="SourceAlpha" type="matrix" values="0 0 0 0 0 0 0 0 0 0 0 0 0 0 0 0 0 0 127 0" result="hardAlpha"/>
<feOffset dy="2"/>
<feGaussianBlur stdDeviation="1"/>
<feComposite in2="hardAlpha" operator="out"/>
<feColorMatrix type="matrix" values="0 0 0 0 0.0385219 0 0 0 0 0.14803 0 0 0 0 0.722946 0 0 0 0.1 0"/>
<feBlend mode="normal" in2="BackgroundImageFix" result="effect1_dropShadow_2578_63088"/>
<feBlend mode="normal" in="SourceGraphic" in2="effect1_dropShadow_2578_63088" result="shape"/>
</filter>
<filter id="filter10_d_2578_63088" x="42.3003" y="131.3" width="12.9329" height="15.2562" filterUnits="userSpaceOnUse" color-interpolation-filters="sRGB">
<feFlood flood-opacity="0" result="BackgroundImageFix"/>
<feColorMatrix in="SourceAlpha" type="matrix" values="0 0 0 0 0 0 0 0 0 0 0 0 0 0 0 0 0 0 127 0" result="hardAlpha"/>
<feOffset dy="2"/>
<feGaussianBlur stdDeviation="1"/>
<feComposite in2="hardAlpha" operator="out"/>
<feColorMatrix type="matrix" values="0 0 0 0 0.0385219 0 0 0 0 0.14803 0 0 0 0 0.722946 0 0 0 0.1 0"/>
<feBlend mode="normal" in2="BackgroundImageFix" result="effect1_dropShadow_2578_63088"/>
<feBlend mode="normal" in="SourceGraphic" in2="effect1_dropShadow_2578_63088" result="shape"/>
</filter>
<radialGradient id="paint0_radial_2578_63088" cx="0" cy="0" r="1" gradientUnits="userSpaceOnUse" gradientTransform="translate(177.18 80.1332) rotate(-150.109) scale(103.1 89.676)">
<stop stop-color="#E3E3E3"/>
<stop offset="1" stop-color="#E3E3E3" stop-opacity="0"/>
</radialGradient>
<linearGradient id="paint1_linear_2578_63088" x1="34.5436" y1="93.083" x2="83.2974" y2="166.944" gradientUnits="userSpaceOnUse">
<stop offset="1.61469e-07" stop-color="#D9DCFA"/>
<stop offset="1" stop-color="#D9DCFA" stop-opacity="0.2"/>
</linearGradient>
<linearGradient id="paint2_linear_2578_63088" x1="34.5436" y1="93.083" x2="83.2974" y2="166.944" gradientUnits="userSpaceOnUse">
<stop offset="1.61469e-07" stop-color="#D9DCFA"/>
<stop offset="1" stop-color="#D9DCFA" stop-opacity="0.2"/>
</linearGradient>
<linearGradient id="paint3_linear_2578_63088" x1="83.8691" y1="140.043" x2="135.307" y2="74.7694" gradientUnits="userSpaceOnUse">
<stop stop-color="#145DEB"/>
<stop offset="1" stop-color="#441C99"/>
</linearGradient>
<linearGradient id="paint4_linear_2578_63088" x1="95" y1="140" x2="173.253" y2="104.574" gradientUnits="userSpaceOnUse">
<stop stop-color="#333152"/>
<stop offset="1" stop-color="#0A26B8"/>
</linearGradient>
<linearGradient id="paint5_linear_2578_63088" x1="160.93" y1="96.1333" x2="159.412" y2="91.4048" gradientUnits="userSpaceOnUse">
<stop stop-color="#E555AC"/>
<stop offset="1" stop-color="#F99048"/>
</linearGradient>
<linearGradient id="paint6_linear_2578_63088" x1="187.597" y1="96.1333" x2="186.893" y2="91.0141" gradientUnits="userSpaceOnUse">
<stop stop-color="#E555AC"/>
<stop offset="1" stop-color="#F99048"/>
</linearGradient>
<linearGradient id="paint7_linear_2578_63088" x1="147.064" y1="113.2" x2="146.679" y2="108.012" gradientUnits="userSpaceOnUse">
<stop stop-color="#E555AC"/>
<stop offset="1" stop-color="#F99048"/>
</linearGradient>
<linearGradient id="paint8_linear_2578_63088" x1="193.997" y1="121.733" x2="193.613" y2="116.546" gradientUnits="userSpaceOnUse">
<stop stop-color="#E555AC"/>
<stop offset="1" stop-color="#F99048"/>
</linearGradient>
<linearGradient id="paint9_linear_2578_63088" x1="176.93" y1="52.4" x2="176.311" y2="47.2585" gradientUnits="userSpaceOnUse">
<stop stop-color="#E555AC"/>
<stop offset="1" stop-color="#F99048"/>
</linearGradient>
<linearGradient id="paint10_linear_2578_63088" x1="151.33" y1="69.4666" x2="150.555" y2="64.3685" gradientUnits="userSpaceOnUse">
<stop stop-color="#E555AC"/>
<stop offset="1" stop-color="#F99048"/>
</linearGradient>
<linearGradient id="paint11_linear_2578_63088" x1="147.064" y1="73.7333" x2="146.679" y2="68.5457" gradientUnits="userSpaceOnUse">
<stop stop-color="#E555AC"/>
<stop offset="1" stop-color="#F99048"/>
</linearGradient>
<linearGradient id="paint12_linear_2578_63088" x1="105.464" y1="93.9999" x2="107.563" y2="104.236" gradientUnits="userSpaceOnUse">
<stop stop-color="#4BD6B5"/>
<stop offset="1" stop-color="#168982"/>
</linearGradient>
<linearGradient id="paint13_linear_2578_63088" x1="153.464" y1="102.533" x2="156.281" y2="112.395" gradientUnits="userSpaceOnUse">
<stop stop-color="#4BD6B5"/>
<stop offset="1" stop-color="#168982"/>
</linearGradient>
<linearGradient id="paint14_linear_2578_63088" x1="196.13" y1="111.067" x2="198.23" y2="121.303" gradientUnits="userSpaceOnUse">
<stop stop-color="#4BD6B5"/>
<stop offset="1" stop-color="#168982"/>
</linearGradient>
<linearGradient id="paint15_linear_2578_63088" x1="105.464" y1="54.5333" x2="107.563" y2="64.7693" gradientUnits="userSpaceOnUse">
<stop stop-color="#4BD6B5"/>
<stop offset="1" stop-color="#168982"/>
</linearGradient>
<linearGradient id="paint16_linear_2578_63088" x1="151.33" y1="71.6" x2="154.148" y2="81.4616" gradientUnits="userSpaceOnUse">
<stop stop-color="#4BD6B5"/>
<stop offset="1" stop-color="#168982"/>
</linearGradient>
<linearGradient id="paint17_linear_2578_63088" x1="230.955" y1="93.1137" x2="278.073" y2="164.497" gradientUnits="userSpaceOnUse">
<stop offset="1.61469e-07" stop-color="#D9DCFA"/>
<stop offset="1" stop-color="#D9DCFA" stop-opacity="0.2"/>
</linearGradient>
<linearGradient id="paint18_linear_2578_63088" x1="230.955" y1="93.1137" x2="278.073" y2="164.497" gradientUnits="userSpaceOnUse">
<stop offset="1.61469e-07" stop-color="#D9DCFA"/>
<stop offset="1" stop-color="#D9DCFA" stop-opacity="0.2"/>
</linearGradient>
<linearGradient id="paint19_linear_2578_63088" x1="245" y1="69.1766" x2="321.039" y2="129.288" gradientUnits="userSpaceOnUse">
<stop stop-color="#9043C6"/>
<stop offset="1" stop-color="#0A26B8"/>
</linearGradient>
<linearGradient id="paint20_linear_2578_63088" x1="309.717" y1="117.536" x2="282.78" y2="158.344" gradientUnits="userSpaceOnUse">
<stop offset="1.61469e-07" stop-color="#D9DCFA"/>
<stop offset="1" stop-color="#D9DCFA" stop-opacity="0.2"/>
</linearGradient>
<linearGradient id="paint21_linear_2578_63088" x1="309.717" y1="117.536" x2="282.78" y2="158.344" gradientUnits="userSpaceOnUse">
<stop offset="1.61469e-07" stop-color="#D9DCFA"/>
<stop offset="1" stop-color="#D9DCFA" stop-opacity="0.2"/>
</linearGradient>
<linearGradient id="paint22_linear_2578_63088" x1="107.034" y1="90.204" x2="109.353" y2="89.2494" gradientUnits="userSpaceOnUse">
<stop stop-color="#DB48BB"/>
<stop offset="1" stop-color="#FF78E1"/>
</linearGradient>
<linearGradient id="paint23_linear_2578_63088" x1="117.5" y1="83.738" x2="117" y2="88.238" gradientUnits="userSpaceOnUse">
<stop stop-color="#FF78E1"/>
<stop offset="1" stop-color="#E555AC"/>
</linearGradient>
<linearGradient id="paint24_linear_2578_63088" x1="117" y1="84" x2="139.5" y2="66.5" gradientUnits="userSpaceOnUse">
<stop stop-color="#FF78E1"/>
<stop offset="1" stop-color="white"/>
</linearGradient>
<linearGradient id="paint25_linear_2578_63088" x1="110.5" y1="81.738" x2="83.1739" y2="80.8905" gradientUnits="userSpaceOnUse">
<stop stop-color="#FF78E1"/>
<stop offset="1" stop-color="#E555AC"/>
</linearGradient>
<linearGradient id="paint26_linear_2578_63088" x1="68.9362" y1="129.591" x2="71.6451" y2="126.288" gradientUnits="userSpaceOnUse">
<stop stop-color="#E1FFFD"/>
<stop offset="1" stop-color="#F3F9FA"/>
</linearGradient>
<linearGradient id="paint27_linear_2578_63088" x1="72.7055" y1="115.593" x2="67.169" y2="129.659" gradientUnits="userSpaceOnUse">
<stop stop-color="white"/>
<stop offset="1" stop-color="#E4E3E8"/>
</linearGradient>
<linearGradient id="paint28_linear_2578_63088" x1="56.9338" y1="141.514" x2="58.8168" y2="137.711" gradientUnits="userSpaceOnUse">
<stop stop-color="#C0F5F2"/>
<stop offset="1" stop-color="#F3F9FA"/>
</linearGradient>
<linearGradient id="paint29_linear_2578_63088" x1="2.09489" y1="13.542" x2="-0.374088" y2="5.31204" gradientUnits="userSpaceOnUse">
<stop stop-color="#C0F5F2"/>
<stop offset="1" stop-color="#F3F9FA"/>
</linearGradient>
<linearGradient id="paint30_linear_2578_63088" x1="1.04745" y1="9.58355" x2="-1.23642" y2="4.20487" gradientUnits="userSpaceOnUse">
<stop stop-color="#C0F5F2"/>
<stop offset="1" stop-color="#F3F9FA"/>
</linearGradient>
</defs>
</svg>
